<svg width="15" height="18" viewBox="0 0 15 18" fill="none" xmlns="http://www.w3.org/2000/svg">
<path d="M10.2715 7.17252C11.4384 6.10865 13.0165 4.66982 13.1603 1.23242H14.2022V0.201172H0.795898V1.23242H1.83777C1.9816 4.66982 3.55961 6.10865 4.72651 7.17252C5.50926 7.88618 5.95215 8.32299 5.95215 9.00117C5.95215 9.67936 5.50926 10.1162 4.72651 10.8298C3.55961 11.8937 1.9816 13.3325 1.83777 16.7699H0.795898V17.8012H14.2022V16.7699H13.1603C13.0165 13.3325 11.4384 11.8937 10.2715 10.8298C9.48879 10.1162 9.0459 9.67936 9.0459 9.00117C9.0459 8.32299 9.48879 7.88618 10.2715 7.17252ZM6.9834 12.8662C6.82414 12.8991 6.66681 12.9469 6.51325 13.0104L3.35498 14.3173C3.87074 13.0059 4.70145 12.2482 5.4213 11.5919C6.22464 10.8595 6.9834 10.1677 6.9834 9.00117V12.8662ZM9.57675 11.5919C10.2966 12.2482 11.1273 13.0059 11.6431 14.3173L8.4848 13.0104C8.33124 12.9469 8.17391 12.8991 8.01465 12.8662V9.00117C8.01465 10.1677 8.77341 10.8595 9.57675 11.5919ZM3.33686 3.63867C3.08754 2.98902 2.91536 2.20462 2.87029 1.23242H12.1277C12.0827 2.20462 11.9105 2.98902 11.6611 3.63867H3.33686Z" fill="#F62D38"/>
</svg>
