<svg width="5" height="16" viewBox="0 0 5 16" fill="none" xmlns="http://www.w3.org/2000/svg">
<path d="M2.80005 4C3.90005 4 4.80005 3.1 4.80005 2C4.80005 0.9 3.90005 0 2.80005 0C1.70005 0 0.800049 0.9 0.800049 2C0.800049 3.1 1.70005 4 2.80005 4ZM2.80005 6C1.70005 6 0.800049 6.9 0.800049 8C0.800049 9.1 1.70005 10 2.80005 10C3.90005 10 4.80005 9.1 4.80005 8C4.80005 6.9 3.90005 6 2.80005 6ZM2.80005 12C1.70005 12 0.800049 12.9 0.800049 14C0.800049 15.1 1.70005 16 2.80005 16C3.90005 16 4.80005 15.1 4.80005 14C4.80005 12.9 3.90005 12 2.80005 12Z" fill="#848B96"/>
</svg>
