<svg width="19" height="19" viewBox="0 0 19 19" fill="none" xmlns="http://www.w3.org/2000/svg">
<path d="M16.2546 3.51251C16.2546 2.47002 15.4065 1.62189 14.364 1.62189H13.9859V3.16876C13.9859 3.45352 13.755 3.68439 13.4703 3.68439C13.1855 3.68439 12.9546 3.45352 12.9546 3.16876V1.62189H10.6859V3.16876C10.6859 3.45352 10.455 3.68439 10.1703 3.68439C9.8855 3.68439 9.65464 3.45352 9.65464 3.16876V1.62189H7.38589V3.16876C7.38589 3.45352 7.15503 3.68439 6.87026 3.68439C6.5855 3.68439 6.35464 3.45352 6.35464 3.16876V1.62189H4.08589V3.16876C4.08589 3.45352 3.85503 3.68439 3.57026 3.68439C3.2855 3.68439 3.05464 3.45352 3.05464 3.16876V1.62189H2.67651C1.63402 1.62189 0.785889 2.47002 0.785889 3.51251V5.05939H16.2546V3.51251Z" fill="#00BDFF"/>
<path d="M4.08589 1.10626C4.08589 0.8215 3.85503 0.590637 3.57026 0.590637C3.2855 0.590637 3.05464 0.8215 3.05464 1.10626L3.05464 1.62189H4.08589L4.08589 1.10626Z" fill="#00BDFF"/>
<path d="M13.9859 1.10626C13.9859 0.8215 13.755 0.590637 13.4703 0.590637C13.1855 0.590637 12.9546 0.8215 12.9546 1.10626L12.9546 1.62189H13.9859L13.9859 1.10626Z" fill="#00BDFF"/>
<path d="M10.6859 1.10626C10.6859 0.8215 10.455 0.590637 10.1703 0.590637C9.8855 0.590637 9.65464 0.8215 9.65464 1.10626L9.65464 1.62189H10.6859V1.10626Z" fill="#00BDFF"/>
<path d="M7.38589 1.10626C7.38589 0.8215 7.15503 0.590637 6.87026 0.590637C6.5855 0.590637 6.35464 0.8215 6.35464 1.10626L6.35464 1.62189H7.38589V1.10626Z" fill="#00BDFF"/>
<path d="M14.6046 9.59689C15.184 9.59689 15.7398 9.69984 16.2546 9.88832V6.09064H0.785889V13.825C0.785889 14.678 1.47982 15.3719 2.33276 15.3719H9.8889C9.82552 15.0608 9.79214 14.7389 9.79214 14.4094C9.79214 11.7558 11.951 9.59689 14.6046 9.59689ZM12.6796 7.89533H13.539C13.8238 7.89533 14.0546 8.12619 14.0546 8.41095C14.0546 8.69571 13.8238 8.92657 13.539 8.92657H12.6796C12.3949 8.92657 12.164 8.69571 12.164 8.41095C12.164 8.12619 12.3949 7.89533 12.6796 7.89533ZM9.62026 7.89533H10.4796C10.7644 7.89533 10.9953 8.12619 10.9953 8.41095C10.9953 8.69571 10.7644 8.92657 10.4796 8.92657H9.62026C9.3355 8.92657 9.10464 8.69571 9.10464 8.41095C9.10464 8.12619 9.3355 7.89533 9.62026 7.89533ZM4.36089 13.5672H3.50151C3.21675 13.5672 2.98589 13.3363 2.98589 13.0516C2.98589 12.7668 3.21675 12.5359 3.50151 12.5359H4.36089C4.64565 12.5359 4.87651 12.7668 4.87651 13.0516C4.87651 13.3363 4.64565 13.5672 4.36089 13.5672ZM4.36089 11.2469H3.50151C3.21675 11.2469 2.98589 11.016 2.98589 10.7313C2.98589 10.4465 3.21675 10.2156 3.50151 10.2156H4.36089C4.64565 10.2156 4.87651 10.4465 4.87651 10.7313C4.87651 11.016 4.64565 11.2469 4.36089 11.2469ZM7.42026 13.5672H6.56089C6.27613 13.5672 6.04526 13.3363 6.04526 13.0516C6.04526 12.7668 6.27613 12.5359 6.56089 12.5359H7.42026C7.70503 12.5359 7.93589 12.7668 7.93589 13.0516C7.93589 13.3363 7.70503 13.5672 7.42026 13.5672ZM7.42026 11.2469H6.56089C6.27613 11.2469 6.04526 11.016 6.04526 10.7313C6.04526 10.4465 6.27613 10.2156 6.56089 10.2156H7.42026C7.70503 10.2156 7.93589 10.4465 7.93589 10.7313C7.93589 11.016 7.70503 11.2469 7.42026 11.2469ZM7.42026 8.92657H6.56089C6.27613 8.92657 6.04526 8.69571 6.04526 8.41095C6.04526 8.12619 6.27613 7.89533 6.56089 7.89533H7.42026C7.70503 7.89533 7.93589 8.12619 7.93589 8.41095C7.93589 8.69571 7.70503 8.92657 7.42026 8.92657ZM9.10464 10.7313C9.10464 10.4465 9.3355 10.2156 9.62026 10.2156H10.4796C10.7644 10.2156 10.9953 10.4465 10.9953 10.7313C10.9953 11.016 10.7644 11.2469 10.4796 11.2469H9.62026C9.3355 11.2469 9.10464 11.016 9.10464 10.7313Z" fill="#00BDFF"/>
<path d="M14.6046 10.6281C12.5197 10.6281 10.8234 12.3244 10.8234 14.4094C10.8234 16.4944 12.5197 18.1906 14.6046 18.1906C16.6896 18.1906 18.3859 16.4944 18.3859 14.4094C18.3859 12.3244 16.6896 10.6281 14.6046 10.6281ZM16.3234 14.925H14.6046C14.3199 14.925 14.089 14.6941 14.089 14.4094V12.6906C14.089 12.4059 14.3199 12.175 14.6046 12.175C14.8894 12.175 15.1203 12.4059 15.1203 12.6906V13.8938H16.3234C16.6082 13.8938 16.839 14.1246 16.839 14.4094C16.839 14.6941 16.6082 14.925 16.3234 14.925Z" fill="#00BDFF"/>
</svg>
