<svg width="18" height="16" viewBox="0 0 18 16" fill="none" xmlns="http://www.w3.org/2000/svg">
<path fill-rule="evenodd" clip-rule="evenodd" d="M15.6666 0.5H2.33329C1.41663 0.5 0.666626 1.25 0.666626 2.16667V13.8333C0.666626 14.75 1.41663 15.5 2.33329 15.5H15.6666C16.5833 15.5 17.3333 14.75 17.3333 13.8333V2.16667C17.3333 1.25 16.5833 0.5 15.6666 0.5ZM7.33329 12.1667H3.16663V10.5H7.33329V12.1667ZM7.33329 8.83333H3.16663V7.16667H7.33329V8.83333ZM7.33329 5.5H3.16663V3.83333H7.33329V5.5ZM11.35 10.5L8.99996 8.13333L10.175 6.95833L11.35 8.14167L13.9916 5.5L15.175 6.68333L11.35 10.5Z" fill="#00BDFF"/>
</svg>
