<svg width="20" height="20" viewBox="0 0 20 20" fill="none" xmlns="http://www.w3.org/2000/svg">
<path fill-rule="evenodd" clip-rule="evenodd" d="M17.5 13.125V16.25H2.5V13.125H1.25V16.25C1.25 16.9375 1.8125 17.5 2.5 17.5H17.5C18.1875 17.5 18.75 16.9375 18.75 16.25V13.125H17.5Z" fill="#606060"/>
<path fill-rule="evenodd" clip-rule="evenodd" d="M8.75002 10.625V9.375V5.625H11.25V9.375V10.625H12.0938L9.9944 12.8406L7.90065 10.625H8.75002ZM9.99375 14.375C10.1619 14.375 10.33 14.3081 10.4537 14.1731L15 9.375H12.5V4.375H7.5V9.375H5L9.5325 14.1719C9.65625 14.3075 9.825 14.375 9.99375 14.375Z" fill="#606060"/>
<path fill-rule="evenodd" clip-rule="evenodd" d="M7.5 3.125H12.5V1.875H7.5V3.125Z" fill="#606060"/>
</svg>
