<svg width="24" height="25" viewBox="0 0 24 25" fill="none" xmlns="http://www.w3.org/2000/svg">
<path fill-rule="evenodd" clip-rule="evenodd" d="M20.5602 5.46022C21.1467 6.04672 21.1467 6.99772 20.5602 7.58422L19.4787 8.66572L18.4174 7.60522L19.4989 6.52372L16.5087 3.53347L15.4272 4.61497L14.3667 3.55447L15.4482 2.47297C16.0347 1.88572 16.9857 1.88572 17.5722 2.47297L20.5602 5.46022Z" fill="#9C9C9C"/>
<path fill-rule="evenodd" clip-rule="evenodd" d="M5.71576 14.7268L8.30626 17.3165L4.97551 18.0568L5.71576 14.7268ZM9.56702 16.4563L6.57602 13.4653L13.305 6.7363L16.296 9.72655L9.56702 16.4563ZM18.4177 9.72655L17.3565 8.66605L13.3095 4.61755L13.3057 4.6153L4.46025 13.46L3 20.0323L9.57225 18.572L18.4177 9.72655Z" fill="#9C9C9C"/>
<path fill-rule="evenodd" clip-rule="evenodd" d="M3 23.0325H21V21.5325H3V23.0325Z" fill="#9C9C9C"/>
</svg>
