<svg width="20" height="21" viewBox="0 0 20 21" fill="none" xmlns="http://www.w3.org/2000/svg">
<path fill-rule="evenodd" clip-rule="evenodd" d="M17.1334 4.63894C17.6222 5.12769 17.6222 5.92019 17.1334 6.40894L16.2322 7.31019L15.3478 6.42644L16.249 5.52519L13.7572 3.03331L12.8559 3.93456L11.9722 3.05081L12.8734 2.14956C13.3622 1.66019 14.1547 1.66019 14.6434 2.14956L17.1334 4.63894Z" fill="#9C9C9C"/>
<path fill-rule="evenodd" clip-rule="evenodd" d="M4.76313 12.3611L6.92188 14.5192L4.14626 15.1361L4.76313 12.3611ZM7.97251 13.8023L5.48001 11.3098L11.0875 5.70232L13.58 8.19419L7.97251 13.8023ZM15.3481 8.19419L14.4637 7.31044L11.0913 3.93669L11.0881 3.93481L3.71688 11.3054L2.5 16.7823L7.97687 15.5654L15.3481 8.19419Z" fill="#9C9C9C"/>
<path fill-rule="evenodd" clip-rule="evenodd" d="M2.5 19.2825H17.5V18.0325H2.5V19.2825Z" fill="#9C9C9C"/>
</svg>
