<svg width="49" height="48" viewBox="0 0 49 48" fill="none" xmlns="http://www.w3.org/2000/svg">
<circle cx="24.4" cy="24" r="24" fill="#F7F7F7"/>
<path d="M30.3241 14.3533H26.0877V13.2236C26.087 12.964 25.8766 12.7537 25.617 12.7529H22.7927C22.5331 12.7537 22.3227 12.964 22.322 13.2236V14.3533H18.0856C16.786 14.3539 15.7326 15.4073 15.7321 16.7069V32.8994C15.7326 34.199 16.786 35.2523 18.0856 35.2529H30.3241C31.6237 35.2523 32.6771 34.199 32.6777 32.8994V16.7069C32.6771 15.4073 31.6237 14.3539 30.3241 14.3533ZM23.2634 13.6944H25.1463V15.5772H23.2634V13.6944ZM31.7362 32.8994C31.734 33.6783 31.103 34.3093 30.3241 34.3115H18.0856C17.3067 34.3093 16.6757 33.6783 16.6735 32.8994V16.7069C16.6757 15.928 17.3067 15.297 18.0856 15.2948H22.322V16.0479C22.3227 16.3075 22.5331 16.5179 22.7927 16.5186H25.617C25.8766 16.5179 26.087 16.3075 26.0877 16.0479V15.2948H30.3241C31.103 15.297 31.734 15.928 31.7362 16.7069V32.8994Z" fill="#848B96"/>
<path d="M29.2952 31.77H19.109C18.8491 31.77 18.6383 31.9807 18.6383 32.2407C18.6383 32.5008 18.8491 32.7114 19.109 32.7114H29.2999C29.56 32.7101 29.7696 32.4983 29.7683 32.2384C29.7669 31.9783 29.5551 31.7687 29.2952 31.77Z" fill="#848B96"/>
<path d="M21.4616 29.6988C21.2016 29.6988 20.9908 29.9094 20.9908 30.1695C20.9908 30.4296 21.2016 30.6402 21.4616 30.6402H26.9453C27.2054 30.6402 27.4161 30.4296 27.4161 30.1695C27.4161 29.9094 27.2054 29.6988 26.9453 29.6988H21.4616Z" fill="#848B96"/>
</svg>
