<svg width="49" height="48" viewBox="0 0 49 48" fill="none" xmlns="http://www.w3.org/2000/svg">
<circle cx="24.2" cy="24" r="24" fill="#F7F7F7"/>
<path d="M26.8498 21.7421C27.2015 21.7421 27.4865 22.0272 27.4865 22.3788C27.4865 22.7305 27.2015 23.0156 26.8498 23.0156H19.0041C18.6525 23.0156 18.3674 22.7305 18.3674 22.3788C18.3674 22.0272 18.6525 21.7421 19.0041 21.7421H26.8498Z" fill="#848B96" stroke="white" stroke-width="0.25"/>
<path d="M18.3674 25.4257C18.3674 25.0741 18.6525 24.789 19.0041 24.789H23.7691C24.1207 24.789 24.4058 25.0741 24.4058 25.4257C24.4058 25.7774 24.1207 26.0624 23.7691 26.0624H19.0041C18.6525 26.0624 18.3674 25.7774 18.3674 25.4257Z" fill="#848B96" stroke="white" stroke-width="0.25"/>
<path d="M18.2468 32.1014H20.7943C21.146 32.1014 21.431 32.3865 21.431 32.7382C21.431 33.0898 21.146 33.3749 20.7943 33.3749H18.2468C16.6358 33.3749 15.325 32.064 15.325 30.453V17.0469C15.325 15.4359 16.6358 14.125 18.2468 14.125H27.6117C29.2227 14.125 30.5335 15.4359 30.5335 17.0469V21.7314C30.5335 22.0831 30.2485 22.3681 29.8968 22.3681C29.5451 22.3681 29.2601 22.0831 29.2601 21.7314V17.0469C29.2601 16.1378 28.5207 15.3984 27.6117 15.3984H18.2468C17.3378 15.3984 16.5984 16.1378 16.5984 17.0469V30.453C16.5984 31.3621 17.3378 32.1014 18.2468 32.1014Z" fill="#848B96" stroke="white" stroke-width="0.25"/>
<path d="M28.8648 25.1167L28.8649 25.1166C29.7064 24.275 31.077 24.275 31.9191 25.1172C32.7613 25.9594 32.7613 27.3299 31.9193 28.172C31.9192 28.1721 31.9192 28.1721 31.9192 28.1721L27.7461 32.3374L27.7461 32.3374C27.6684 32.4149 27.572 32.471 27.4663 32.5003L27.4996 32.6208L27.4663 32.5003L24.3918 33.352L24.3918 33.352C24.3356 33.3675 24.2785 33.3751 24.2219 33.3751C24.0526 33.3751 23.8875 33.3075 23.7661 33.183C23.6039 33.0168 23.5451 32.7755 23.6126 32.5533L24.5233 29.555C24.5233 29.555 24.5233 29.555 24.5233 29.555C24.5538 29.4546 24.6086 29.3634 24.6828 29.2893L28.8648 25.1167ZM26.9333 31.3266L26.965 31.3178L26.9882 31.2946L29.7933 28.4948L29.8819 28.4064L29.7934 28.3179L28.716 27.2405L28.6277 27.1522L28.5393 27.2404L25.7176 30.0559L25.6954 30.078L25.6863 30.108L25.2336 31.5983L25.1675 31.8157L25.3866 31.7551L26.9333 31.3266ZM31.0192 27.2713L31.0193 27.2712C31.3646 26.9258 31.3645 26.3635 31.0187 26.0177C30.6729 25.6719 30.1106 25.6719 29.7648 26.0177L29.6178 26.1644L29.5292 26.2528L29.6177 26.3413L30.6949 27.4185L30.7832 27.5068L30.8716 27.4186L31.0192 27.2713Z" fill="#848B96" stroke="white" stroke-width="0.25"/>
<path d="M19.0041 18.6953H26.8498C27.2015 18.6953 27.4865 18.9804 27.4865 19.332C27.4865 19.6837 27.2015 19.9687 26.8498 19.9687H19.0041C18.6525 19.9687 18.3674 19.6837 18.3674 19.332C18.3674 18.9804 18.6525 18.6953 19.0041 18.6953Z" fill="#848B96" stroke="white" stroke-width="0.25"/>
</svg>
