<svg width="49" height="48" viewBox="0 0 49 48" fill="none" xmlns="http://www.w3.org/2000/svg">
<circle cx="24.6001" cy="24" r="24" fill="#F7F7F7"/>
<path fill-rule="evenodd" clip-rule="evenodd" d="M32.8501 32.25H16.3501V24H14.8501V32.25C14.8501 33.075 15.5251 33.75 16.3501 33.75H32.8501C33.6751 33.75 34.3501 33.075 34.3501 32.25V24H32.8501V32.25Z" fill="#848B96" stroke="white" stroke-width="0.25"/>
<path fill-rule="evenodd" clip-rule="evenodd" d="M32.8502 21H16.3502V17.25H18.6002V19.5H20.1002V17.25H29.1002V19.5H30.6002V17.25H32.8502V21ZM32.8501 15.75H30.6001V14.25H29.1001V15.75H20.1001V14.25H18.6001V15.75H16.3501C15.5251 15.75 14.8501 16.425 14.8501 17.25V21V22.5H16.3501H32.8501H34.3501V21V17.25C34.3501 16.425 33.6751 15.75 32.8501 15.75Z" fill="#848B96"/>
<path d="M32.8502 21V21.125H32.9752V21H32.8502ZM16.3502 21H16.2252V21.125H16.3502V21ZM16.3502 17.25V17.125H16.2252V17.25H16.3502ZM18.6002 17.25H18.7252V17.125H18.6002V17.25ZM18.6002 19.5H18.4752V19.625H18.6002V19.5ZM20.1002 19.5V19.625H20.2252V19.5H20.1002ZM20.1002 17.25V17.125H19.9752V17.25H20.1002ZM29.1002 17.25H29.2252V17.125H29.1002V17.25ZM29.1002 19.5H28.9752V19.625H29.1002V19.5ZM30.6002 19.5V19.625H30.7252V19.5H30.6002ZM30.6002 17.25V17.125H30.4752V17.25H30.6002ZM32.8502 17.25H32.9752V17.125H32.8502V17.25ZM30.6001 15.75H30.4751V15.875H30.6001V15.75ZM30.6001 14.25H30.7251V14.125H30.6001V14.25ZM29.1001 14.25V14.125H28.9751V14.25H29.1001ZM29.1001 15.75V15.875H29.2251V15.75H29.1001ZM20.1001 15.75H19.9751V15.875H20.1001V15.75ZM20.1001 14.25H20.2251V14.125H20.1001V14.25ZM18.6001 14.25V14.125H18.4751V14.25H18.6001ZM18.6001 15.75V15.875H18.7251V15.75H18.6001ZM14.8501 22.5H14.7251V22.625H14.8501V22.5ZM34.3501 22.5V22.625H34.4751V22.5H34.3501ZM32.8502 20.875H16.3502V21.125H32.8502V20.875ZM16.4752 21V17.25H16.2252V21H16.4752ZM16.3502 17.375H18.6002V17.125H16.3502V17.375ZM18.4752 17.25V19.5H18.7252V17.25H18.4752ZM18.6002 19.625H20.1002V19.375H18.6002V19.625ZM20.2252 19.5V17.25H19.9752V19.5H20.2252ZM20.1002 17.375H29.1002V17.125H20.1002V17.375ZM28.9752 17.25V19.5H29.2252V17.25H28.9752ZM29.1002 19.625H30.6002V19.375H29.1002V19.625ZM30.7252 19.5V17.25H30.4752V19.5H30.7252ZM30.6002 17.375H32.8502V17.125H30.6002V17.375ZM32.7252 17.25V21H32.9752V17.25H32.7252ZM32.8501 15.625H30.6001V15.875H32.8501V15.625ZM30.7251 15.75V14.25H30.4751V15.75H30.7251ZM30.6001 14.125H29.1001V14.375H30.6001V14.125ZM28.9751 14.25V15.75H29.2251V14.25H28.9751ZM29.1001 15.625H20.1001V15.875H29.1001V15.625ZM20.2251 15.75V14.25H19.9751V15.75H20.2251ZM20.1001 14.125H18.6001V14.375H20.1001V14.125ZM18.4751 14.25V15.75H18.7251V14.25H18.4751ZM18.6001 15.625H16.3501V15.875H18.6001V15.625ZM16.3501 15.625C15.4561 15.625 14.7251 16.356 14.7251 17.25H14.9751C14.9751 16.494 15.5941 15.875 16.3501 15.875V15.625ZM14.7251 17.25V21H14.9751V17.25H14.7251ZM14.7251 21V22.5H14.9751V21H14.7251ZM14.8501 22.625H16.3501V22.375H14.8501V22.625ZM16.3501 22.625H32.8501V22.375H16.3501V22.625ZM32.8501 22.625H34.3501V22.375H32.8501V22.625ZM34.4751 22.5V21H34.2251V22.5H34.4751ZM34.4751 21V17.25H34.2251V21H34.4751ZM34.4751 17.25C34.4751 16.356 33.7441 15.625 32.8501 15.625V15.875C33.6061 15.875 34.2251 16.494 34.2251 17.25H34.4751Z" fill="white"/>
<g clip-path="url(#clip0_1211_25669)">
<path d="M27.5063 25.4116L27.1885 25.0938L25.1001 27.1822L23.0117 25.0938L22.6938 25.4116L24.7823 27.5L22.6938 29.5884L23.0117 29.9062L25.1001 27.8178L27.1885 29.9062L27.5063 29.5884L25.4179 27.5L27.5063 25.4116Z" fill="#686868" stroke="#848B96" stroke-width="0.75"/>
</g>
<defs>
<clipPath id="clip0_1211_25669">
<rect width="7" height="7" fill="white" transform="translate(21.6001 24)"/>
</clipPath>
</defs>
</svg>
