<svg width="48" height="48" viewBox="0 0 48 48" fill="none" xmlns="http://www.w3.org/2000/svg">
<circle cx="24" cy="24" r="24" fill="#F7F7F7"/>
<path fill-rule="evenodd" clip-rule="evenodd" d="M32.25 32H15.75V23.75H14.25V32C14.25 32.825 14.925 33.5 15.75 33.5H32.25C33.075 33.5 33.75 32.825 33.75 32V23.75H32.25V32Z" fill="#848B96" stroke="white" stroke-width="0.25"/>
<path fill-rule="evenodd" clip-rule="evenodd" d="M32.2501 21H15.7501V17.25H18.0001V19.5H19.5001V17.25H28.5001V19.5H30.0001V17.25H32.2501V21ZM32.25 15.5H30V14H28.5V15.5H19.5V14H18V15.5H15.75C14.925 15.5 14.25 16.175 14.25 17V20.75V22.25H15.75H32.25H33.75V20.75V17C33.75 16.175 33.075 15.5 32.25 15.5Z" fill="#848B96"/>
<path d="M32.2501 21V21.125H32.3751V21H32.2501ZM15.7501 21H15.6251V21.125H15.7501V21ZM15.7501 17.25V17.125H15.6251V17.25H15.7501ZM18.0001 17.25H18.1251V17.125H18.0001V17.25ZM18.0001 19.5H17.8751V19.625H18.0001V19.5ZM19.5001 19.5V19.625H19.6251V19.5H19.5001ZM19.5001 17.25V17.125H19.3751V17.25H19.5001ZM28.5001 17.25H28.6251V17.125H28.5001V17.25ZM28.5001 19.5H28.3751V19.625H28.5001V19.5ZM30.0001 19.5V19.625H30.1251V19.5H30.0001ZM30.0001 17.25V17.125H29.8751V17.25H30.0001ZM32.2501 17.25H32.3751V17.125H32.2501V17.25ZM30 15.5H29.875V15.625H30V15.5ZM30 14H30.125V13.875H30V14ZM28.5 14V13.875H28.375V14H28.5ZM28.5 15.5V15.625H28.625V15.5H28.5ZM19.5 15.5H19.375V15.625H19.5V15.5ZM19.5 14H19.625V13.875H19.5V14ZM18 14V13.875H17.875V14H18ZM18 15.5V15.625H18.125V15.5H18ZM14.25 22.25H14.125V22.375H14.25V22.25ZM33.75 22.25V22.375H33.875V22.25H33.75ZM32.2501 20.875H15.7501V21.125H32.2501V20.875ZM15.8751 21V17.25H15.6251V21H15.8751ZM15.7501 17.375H18.0001V17.125H15.7501V17.375ZM17.8751 17.25V19.5H18.1251V17.25H17.8751ZM18.0001 19.625H19.5001V19.375H18.0001V19.625ZM19.6251 19.5V17.25H19.3751V19.5H19.6251ZM19.5001 17.375H28.5001V17.125H19.5001V17.375ZM28.3751 17.25V19.5H28.6251V17.25H28.3751ZM28.5001 19.625H30.0001V19.375H28.5001V19.625ZM30.1251 19.5V17.25H29.8751V19.5H30.1251ZM30.0001 17.375H32.2501V17.125H30.0001V17.375ZM32.1251 17.25V21H32.3751V17.25H32.1251ZM32.25 15.375H30V15.625H32.25V15.375ZM30.125 15.5V14H29.875V15.5H30.125ZM30 13.875H28.5V14.125H30V13.875ZM28.375 14V15.5H28.625V14H28.375ZM28.5 15.375H19.5V15.625H28.5V15.375ZM19.625 15.5V14H19.375V15.5H19.625ZM19.5 13.875H18V14.125H19.5V13.875ZM17.875 14V15.5H18.125V14H17.875ZM18 15.375H15.75V15.625H18V15.375ZM15.75 15.375C14.856 15.375 14.125 16.106 14.125 17H14.375C14.375 16.244 14.994 15.625 15.75 15.625V15.375ZM14.125 17V20.75H14.375V17H14.125ZM14.125 20.75V22.25H14.375V20.75H14.125ZM14.25 22.375H15.75V22.125H14.25V22.375ZM15.75 22.375H32.25V22.125H15.75V22.375ZM32.25 22.375H33.75V22.125H32.25V22.375ZM33.875 22.25V20.75H33.625V22.25H33.875ZM33.875 20.75V17H33.625V20.75H33.875ZM33.875 17C33.875 16.106 33.144 15.375 32.25 15.375V15.625C33.006 15.625 33.625 16.244 33.625 17H33.875Z" fill="white"/>
<g clip-path="url(#clip0_1211_25628)">
<path d="M23.6804 30.1154C23.6136 30.1826 23.5224 30.2201 23.4277 30.2201C23.333 30.2201 23.2419 30.1826 23.1751 30.1154L21.1571 28.0971C20.9476 27.8877 20.9476 27.5481 21.1571 27.339L21.4098 27.0863C21.6192 26.8769 21.9584 26.8769 22.1679 27.0863L23.4277 28.3462L26.8321 24.9418C27.0416 24.7324 27.3811 24.7324 27.5902 24.9418L27.8429 25.1945C28.0523 25.404 28.0523 25.7435 27.8429 25.9526L23.6804 30.1154Z" fill="#848B96"/>
</g>
<defs>
<clipPath id="clip0_1211_25628">
<rect width="7" height="7" fill="white" transform="translate(21 24)"/>
</clipPath>
</defs>
</svg>
