<svg width="76" height="48" viewBox="0 0 76 48" fill="none" xmlns="http://www.w3.org/2000/svg">
<circle cx="52" cy="24" r="24" fill="#F7F7F7"/>
<path fill-rule="evenodd" clip-rule="evenodd" d="M20.25 33.25H3.75V25H2.25V33.25C2.25 34.075 2.925 34.75 3.75 34.75H20.25C21.075 34.75 21.75 34.075 21.75 33.25V25H20.25V33.25Z" fill="#9C9C9C"/>
<path fill-rule="evenodd" clip-rule="evenodd" d="M20.2501 22H3.75008V18.25H6.00008V20.5H7.50008V18.25H16.5001V20.5H18.0001V18.25H20.2501V22ZM20.25 16.75H18V15.25H16.5V16.75H7.5V15.25H6V16.75H3.75C2.925 16.75 2.25 17.425 2.25 18.25V22V23.5H3.75H20.25H21.75V22V18.25C21.75 17.425 21.075 16.75 20.25 16.75Z" fill="#9C9C9C"/>
</svg>
