<svg width="25" height="24" viewBox="0 0 25 24" fill="none" xmlns="http://www.w3.org/2000/svg">
<path d="M9.47733 17.2497C9.28786 17.249 9.10565 17.1767 8.96733 17.0472C8.28244 16.3969 7.73704 15.6141 7.36434 14.7463C6.99164 13.8786 6.79945 12.9441 6.79945 11.9997C6.79945 11.0553 6.99164 10.1207 7.36434 9.25299C7.73704 8.38523 8.28244 7.60241 8.96733 6.95216C9.11492 6.83249 9.30243 6.77329 9.49198 6.78653C9.68153 6.79978 9.85899 6.88447 9.9885 7.02351C10.118 7.16254 10.1899 7.34556 10.1897 7.53557C10.1895 7.72558 10.1172 7.90842 9.98733 8.04716C9.4542 8.55819 9.02996 9.17179 8.74014 9.85105C8.45032 10.5303 8.30092 11.2612 8.30092 11.9997C8.30092 12.7382 8.45032 13.469 8.74014 14.1483C9.02996 14.8275 9.4542 15.4411 9.98733 15.9522C10.097 16.0548 10.1733 16.1881 10.2064 16.3346C10.2394 16.4811 10.2277 16.6342 10.1728 16.774C10.1178 16.9138 10.0221 17.0339 9.89815 17.1187C9.77416 17.2035 9.62755 17.2491 9.47733 17.2497ZM6.47733 19.2597C6.61702 19.1191 6.69543 18.9291 6.69543 18.7309C6.69543 18.5328 6.61702 18.3427 6.47733 18.2022C5.63826 17.4016 4.97034 16.4392 4.51398 15.3731C4.05763 14.307 3.82233 13.1593 3.82233 11.9997C3.82233 10.84 4.05763 9.69235 4.51398 8.62624C4.97034 7.56012 5.63826 6.59768 6.47733 5.79716C6.62254 5.65693 6.70609 5.46476 6.70961 5.26292C6.71312 5.06109 6.63632 4.86612 6.49608 4.72091C6.35585 4.57571 6.16368 4.49216 5.96184 4.48864C5.76 4.48512 5.56504 4.56193 5.41983 4.70216C4.43188 5.64357 3.64536 6.77577 3.10796 8.03016C2.57056 9.28455 2.29346 10.635 2.29346 11.9997C2.29346 13.3643 2.57056 14.7148 3.10796 15.9692C3.64536 17.2236 4.43188 18.3558 5.41983 19.2972C5.492 19.3651 5.57691 19.418 5.66965 19.4529C5.76239 19.4878 5.86112 19.5039 5.96015 19.5005C6.05918 19.497 6.15653 19.4739 6.24659 19.4326C6.33664 19.3912 6.41762 19.3325 6.48483 19.2597H6.47733ZM16.6248 17.0472C17.3097 16.3969 17.8551 15.6141 18.2278 14.7463C18.6005 13.8786 18.7927 12.9441 18.7927 11.9997C18.7927 11.0553 18.6005 10.1207 18.2278 9.25299C17.8551 8.38523 17.3097 7.60241 16.6248 6.95216C16.5529 6.8847 16.4685 6.83205 16.3762 6.79724C16.284 6.76242 16.1858 6.74611 16.0872 6.74925C15.9887 6.75238 15.8917 6.77489 15.8019 6.8155C15.712 6.85611 15.631 6.91402 15.5636 6.98591C15.4961 7.05781 15.4435 7.1423 15.4087 7.23454C15.3738 7.32678 15.3575 7.42498 15.3607 7.52353C15.3638 7.62208 15.3863 7.71904 15.4269 7.80888C15.4675 7.89873 15.5254 7.9797 15.5973 8.04716C16.1333 8.55652 16.5601 9.16958 16.8518 9.84906C17.1434 10.5285 17.2938 11.2602 17.2938 11.9997C17.2938 12.7391 17.1434 13.4708 16.8518 14.1503C16.5601 14.8297 16.1333 15.4428 15.5973 15.9522C15.4525 16.0877 15.3673 16.275 15.3603 16.4732C15.3533 16.6714 15.425 16.8642 15.5598 17.0097C15.6306 17.086 15.7165 17.1468 15.8121 17.1881C15.9076 17.2294 16.0107 17.2504 16.1148 17.2497C16.3043 17.249 16.4865 17.1767 16.6248 17.0472ZM20.1648 19.2972C21.1557 18.3574 21.9448 17.2258 22.484 15.9712C23.0233 14.7166 23.3014 13.3653 23.3014 11.9997C23.3014 10.6341 23.0233 9.28278 22.484 8.02816C21.9448 6.77355 21.1557 5.64189 20.1648 4.70216C20.0172 4.58249 19.8297 4.52329 19.6402 4.53653C19.4506 4.54978 19.2732 4.63447 19.1437 4.77351C19.0142 4.91254 18.9422 5.09555 18.9425 5.28557C18.9427 5.47558 19.015 5.65842 19.1448 5.79716C19.9839 6.59768 20.6518 7.56012 21.1082 8.62624C21.5645 9.69235 21.7998 10.84 21.7998 11.9997C21.7998 13.1593 21.5645 14.307 21.1082 15.3731C20.6518 16.4392 19.9839 17.4016 19.1448 18.2022C19 18.3377 18.9148 18.525 18.9078 18.7232C18.9008 18.9214 18.9725 19.1142 19.1073 19.2597C19.1773 19.3351 19.262 19.3953 19.3561 19.4366C19.4503 19.4779 19.552 19.4993 19.6548 19.4997C19.8443 19.499 20.0265 19.4267 20.1648 19.2972ZM14.2998 11.9997C14.2998 11.703 14.2119 11.413 14.047 11.1663C13.8822 10.9196 13.6479 10.7274 13.3739 10.6138C13.0998 10.5003 12.7982 10.4706 12.5072 10.5285C12.2162 10.5864 11.949 10.7292 11.7392 10.939C11.5294 11.1488 11.3865 11.4161 11.3287 11.707C11.2708 11.998 11.3005 12.2996 11.414 12.5737C11.5275 12.8478 11.7198 13.082 11.9665 13.2469C12.2132 13.4117 12.5032 13.4997 12.7998 13.4997C13.1977 13.4997 13.5792 13.3416 13.8605 13.0603C14.1418 12.779 14.2998 12.3975 14.2998 11.9997Z" fill="#00B900"/>
</svg>
