<svg width="20" height="20" viewBox="0 0 20 20" fill="none" xmlns="http://www.w3.org/2000/svg">
<path d="M16.7357 1.41961H15.9398V0.759609C15.9398 0.584566 15.8702 0.416693 15.7465 0.292919C15.6227 0.169145 15.4548 0.0996094 15.2798 0.0996094C15.1047 0.0996094 14.9368 0.169145 14.8131 0.292919C14.6893 0.416693 14.6198 0.584566 14.6198 0.759609V1.41961H10.6598V0.759609C10.6598 0.584566 10.5902 0.416693 10.4665 0.292919C10.3427 0.169145 10.1748 0.0996094 9.99977 0.0996094C9.82472 0.0996094 9.65685 0.169145 9.53307 0.292919C9.4093 0.416693 9.33977 0.584566 9.33977 0.759609V1.41961H5.37977V0.759609C5.37977 0.584566 5.31023 0.416693 5.18646 0.292919C5.06268 0.169145 4.89481 0.0996094 4.71977 0.0996094C4.54472 0.0996094 4.37685 0.169145 4.25308 0.292919C4.1293 0.416693 4.05977 0.584566 4.05977 0.759609V1.41961H3.26381C2.60001 1.42066 1.96371 1.68481 1.49434 2.15418C1.02497 2.62355 0.760813 3.25986 0.759766 3.92365V17.3956C0.760813 18.0594 1.02497 18.6957 1.49434 19.165C1.96371 19.6344 2.60001 19.8986 3.26381 19.8996H16.7357C17.3995 19.8986 18.0358 19.6344 18.5052 19.165C18.9746 18.6957 19.2387 18.0594 19.2398 17.3956V3.92365C19.2387 3.25986 18.9746 2.62355 18.5052 2.15418C18.0358 1.68481 17.3995 1.42066 16.7357 1.41961ZM8.48573 13.1062L6.50573 15.0862C6.38196 15.21 6.21411 15.2795 6.0391 15.2795C5.8641 15.2795 5.69625 15.21 5.57249 15.0862L4.25249 13.7662C4.18945 13.7053 4.13917 13.6325 4.10458 13.552C4.06999 13.4715 4.05178 13.3849 4.05102 13.2972C4.05026 13.2096 4.06696 13.1227 4.10014 13.0416C4.13333 12.9605 4.18234 12.8868 4.2443 12.8248C4.30627 12.7628 4.37996 12.7138 4.46108 12.6806C4.54219 12.6475 4.6291 12.6308 4.71673 12.6315C4.80436 12.6323 4.89097 12.6505 4.97149 12.6851C5.05202 12.7197 5.12484 12.77 5.18573 12.833L6.03977 13.6864L7.55315 12.173C7.67762 12.0528 7.84434 11.9862 8.01739 11.9877C8.19044 11.9892 8.35598 12.0587 8.47835 12.181C8.60071 12.3034 8.67013 12.4689 8.67163 12.642C8.67313 12.815 8.60595 12.9818 8.48573 13.1062ZM8.48573 7.16623L6.50573 9.14623C6.38196 9.26996 6.21411 9.33947 6.0391 9.33947C5.8641 9.33947 5.69625 9.26996 5.57249 9.14623L4.25249 7.82623C4.18945 7.76535 4.13917 7.69252 4.10458 7.612C4.06999 7.53147 4.05178 7.44487 4.05102 7.35723C4.05026 7.2696 4.06696 7.18269 4.10014 7.10158C4.13333 7.02047 4.18234 6.94678 4.2443 6.88481C4.30627 6.82284 4.37996 6.77383 4.46108 6.74065C4.54219 6.70746 4.6291 6.69076 4.71673 6.69152C4.80436 6.69229 4.89097 6.71049 4.97149 6.74508C5.05202 6.77967 5.12484 6.82995 5.18573 6.89299L6.03977 7.74637L7.55315 6.23299C7.67762 6.11276 7.84434 6.04624 8.01739 6.04774C8.19044 6.04925 8.35598 6.11866 8.47835 6.24103C8.60071 6.3634 8.67013 6.52893 8.67163 6.70198C8.67313 6.87503 8.60595 7.04175 8.48573 7.16623ZM15.2798 14.6196H10.6598C10.4847 14.6196 10.3168 14.5501 10.1931 14.4263C10.0693 14.3025 9.99977 14.1347 9.99977 13.9596C9.99977 13.7846 10.0693 13.6167 10.1931 13.4929C10.3168 13.3691 10.4847 13.2996 10.6598 13.2996H15.2798C15.4548 13.2996 15.6227 13.3691 15.7465 13.4929C15.8702 13.6167 15.9398 13.7846 15.9398 13.9596C15.9398 14.1347 15.8702 14.3025 15.7465 14.4263C15.6227 14.5501 15.4548 14.6196 15.2798 14.6196ZM15.2798 8.67961H10.6598C10.4847 8.67961 10.3168 8.61007 10.1931 8.4863C10.0693 8.36253 9.99977 8.19465 9.99977 8.01961C9.99977 7.84457 10.0693 7.67669 10.1931 7.55292C10.3168 7.42914 10.4847 7.35961 10.6598 7.35961H15.2798C15.4548 7.35961 15.6227 7.42914 15.7465 7.55292C15.8702 7.67669 15.9398 7.84457 15.9398 8.01961C15.9398 8.19465 15.8702 8.36253 15.7465 8.4863C15.6227 8.61007 15.4548 8.67961 15.2798 8.67961Z" fill="#131CA2"/>
</svg>
